<svg width="158" height="50" viewBox="0 0 158 50" fill="none" xmlns="http://www.w3.org/2000/svg">
<mask id="mask0_101_77" style="mask-type:luminance" maskUnits="userSpaceOnUse" x="3" y="1" width="34" height="48">
<path d="M36.5895 1.66667H3.32629V48.3333H36.5895V1.66667Z" fill="white"/>
</mask>
<g mask="url(#mask0_101_77)">
<path fill-rule="evenodd" clip-rule="evenodd" d="M9.3869 1.80705H13.6153V22.8913H29.683V26.2648H13.6153V48.1927H9.3869V1.80705ZM31.3744 1.80705H13.6153V5.18055H31.3744V1.80705ZM31.3744 44.8192H13.6153V48.1927H31.3744V44.8192Z" fill="#FDC921"/>
<mask id="mask1_101_77" style="mask-type:luminance" maskUnits="userSpaceOnUse" x="9" y="1" width="23" height="48">
<path d="M31.5155 1.66667H9.24603V48.3333H31.5155V1.66667Z" fill="white"/>
<path fill-rule="evenodd" clip-rule="evenodd" d="M9.3869 1.80705H13.6153V22.8913H29.683V26.2648H13.6153V48.1927H9.3869V1.80705ZM31.3744 1.80705H13.6153V5.18055H31.3744V1.80705ZM31.3744 44.8192H13.6153V48.1927H31.3744V44.8192Z" fill="black"/>
</mask>
<g mask="url(#mask1_101_77)">
<path d="M13.6153 1.80723H13.7563V1.66667H13.6153V1.80723ZM9.38697 1.80723V1.66667H9.24603V1.80723H9.38697ZM13.6153 22.8915H13.4744V23.0322H13.6153V22.8915ZM29.6832 22.8915H29.8241V22.751H29.6832V22.8915ZM29.6832 26.265V26.4057H29.8241V26.265H29.6832ZM13.6153 26.265V26.1245H13.4744V26.265H13.6153ZM13.6153 48.1928V48.3333H13.7563V48.1928H13.6153ZM9.38697 48.1928H9.24603V48.3333H9.38697V48.1928ZM13.6153 1.80723V1.66667H13.4744V1.80723H13.6153ZM31.3745 1.80723H31.5155V1.66667H31.3745V1.80723ZM13.6153 5.18072H13.4744V5.32128H13.6153V5.18072ZM31.3745 5.18072V5.32128H31.5155V5.18072H31.3745ZM13.6153 44.8193V44.6787H13.4744V44.8193H13.6153ZM31.3745 44.8193H31.5155V44.6787H31.3745V44.8193ZM13.6153 48.1928H13.4744V48.3333H13.6153V48.1928ZM31.3745 48.1928V48.3333H31.5155V48.1928H31.3745ZM13.6153 1.66667H9.38697V1.94778H13.6153V1.66667ZM13.7563 22.8915V1.80723H13.4744V22.8915H13.7563ZM13.6153 23.0322H29.6832V22.751H13.6153V23.0322ZM29.5422 22.8915V26.265H29.8241V22.8915H29.5422ZM29.6832 26.1245H13.6153V26.4057H29.6832V26.1245ZM13.7563 48.1928V26.265H13.4744V48.1928H13.7563ZM9.38697 48.3333H13.6153V48.0522H9.38697V48.3333ZM9.24603 1.80723V48.1928H9.52792V1.80723H9.24603ZM13.6153 1.94778H31.3745V1.66667H13.6153V1.94778ZM13.7563 5.18072V1.80723H13.4744V5.18072H13.7563ZM31.3745 5.04017H13.6153V5.32128H31.3745V5.04017ZM31.2336 1.80723V5.18072H31.5155V1.80723H31.2336ZM13.6153 44.9598H31.3745V44.6787H13.6153V44.9598ZM13.7563 48.1928V44.8193H13.4744V48.1928H13.7563ZM31.3745 48.0522H13.6153V48.3333H31.3745V48.0522ZM31.2336 44.8193V48.1928H31.5155V44.8193H31.2336Z" fill="white"/>
</g>
<path fill-rule="evenodd" clip-rule="evenodd" d="M6.84992 8.4135H3.46722V42.1485H6.84992H36.4484V38.775H6.8499L6.84992 26.1243H9.24597V22.7508H6.84992V11.787H36.4484V8.4135H6.84992Z" fill="#FDC921"/>
<mask id="mask2_101_77" style="mask-type:luminance" maskUnits="userSpaceOnUse" x="3" y="8" width="34" height="35">
<path d="M36.5895 8.27312H3.32629V42.4297H36.5895V8.27312Z" fill="white"/>
<path fill-rule="evenodd" clip-rule="evenodd" d="M6.84992 8.4135H3.46722V42.1485H6.84992H36.4484V38.775H6.8499L6.84992 26.1243H9.24597V22.7508H6.84992V11.787H36.4484V8.4135H6.84992Z" fill="black"/>
</mask>
<g mask="url(#mask2_101_77)">
<path d="M3.46725 8.41367V8.27312H3.32629V8.41367H3.46725ZM6.84993 8.41367H6.99088V8.27312H6.84993V8.41367ZM3.46725 42.1487H3.32629V42.2892H3.46725V42.1487ZM6.84993 42.1487L6.98364 42.193L7.04548 42.008H6.84993V42.1487ZM6.84993 42.1487L6.71623 42.1042L6.65437 42.2892H6.84993V42.1487ZM36.4486 42.1487V42.2892H36.5895V42.1487H36.4486ZM36.4486 38.7752H36.5895V38.6345H36.4486V38.7752ZM6.84993 38.7752H6.70897V38.9157H6.84993V38.7752ZM6.84993 26.1245V25.984H6.70899V26.1245H6.84993ZM9.24599 26.1245V26.265H9.38694V26.1245H9.24599ZM9.24599 22.751H9.38694V22.6105H9.24599V22.751ZM6.84993 22.751H6.70899V22.8917H6.84993V22.751ZM6.84993 11.7872V11.6466H6.70899V11.7872H6.84993ZM36.4486 11.7872V11.9277H36.5895V11.7872H36.4486ZM36.4486 8.41368H36.5895V8.27313H36.4486V8.41368ZM6.84993 8.41367L6.70899 8.41368V8.55425H6.84993V8.41367ZM3.46725 8.55423L6.84993 8.55425V8.27312H3.46725V8.55423ZM3.60818 42.1487V8.41367H3.32629V42.1487H3.60818ZM6.84993 42.008H3.46725V42.2892H6.84993V42.008ZM36.4486 42.008H6.84993V42.2892H36.4486V42.008ZM36.3075 38.7752V42.1487H36.5895V38.7752H36.3075ZM6.84993 38.9157H36.4486V38.6345H6.84993V38.9157ZM6.70899 26.1245L6.70897 38.7752H6.99086L6.99088 26.1245H6.70899ZM9.24599 25.984H6.84993V26.265H9.24599V25.984ZM9.10505 22.751V26.1245H9.38694V22.751H9.10505ZM6.84993 22.8917H9.24599V22.6105H6.84993V22.8917ZM6.70899 11.7872V22.751H6.99088V11.7872H6.70899ZM36.4486 11.6466H6.84993V11.9277H36.4486V11.6466ZM36.3075 8.41368V11.7872H36.5895V8.41368H36.3075ZM6.84993 8.55425H36.4486V8.27313L6.84993 8.27312V8.55425Z" fill="white"/>
</g>
</g>
<path d="M55.9367 14.7135V16.6667H46.1915V22.9167H55.4819V24.8698H46.1915V31.3802H56.1316V33.3333H43.7878V14.7135H55.9367ZM62.4396 14.7135V31.3802H72.1588V33.3333H60.0358V14.7135H62.4396ZM78.0899 14.7135V33.3333H75.6861V14.7135H78.0899ZM95.7152 14.7135V16.6667H89.8682V33.3333H87.4645V16.6667H81.6173V14.7135H95.7152ZM111.002 14.7135V16.6667H101.257V22.9167H110.547V24.8698H101.257V31.3802H111.197V33.3333H98.8529V14.7135H111.002ZM114.971 26.1458V14.7135H117.375V26.1458C117.375 29.7222 119.15 31.5103 122.702 31.5103C126.254 31.5103 128.029 29.7222 128.029 26.1458V14.7135H130.433V26.1458C130.433 31.0243 127.856 33.4635 122.702 33.4635C117.548 33.4635 114.971 31.0243 114.971 26.1458ZM134.987 33.3333V14.7135H142.913C146.447 14.7135 148.214 16.2022 148.214 19.1797C148.214 21.6015 146.486 23.3942 143.03 24.5573L149.41 33.3333H146.239L140.327 24.961V23.3853C143.879 22.8212 145.655 21.454 145.655 19.2838C145.655 17.5652 144.667 16.7057 142.692 16.7057H137.391V33.3333H134.987Z" fill="#FDC921"/>
</svg>
